<?xml version="1.0" encoding="utf-8"?>
<!-- Generator: Adobe Illustrator 23.0.3, SVG Export Plug-In . SVG Version: 6.00 Build 0)  -->
<svg version="1.1" id="图层_1" xmlns="http://www.w3.org/2000/svg" xmlns:xlink="http://www.w3.org/1999/xlink" x="0px" y="0px"
	 viewBox="0 0 2000 2000" style="enable-background:new 0 0 2000 2000;" xml:space="preserve">
<style type="text/css">
	.st0{fill:#00B0FF;}
	.st1{fill:#FFDE00;}
</style>
<g>
	<path class="st0" d="M1560.8,1160.1c2.2-23.6-3.4-47.4-16-66.9c-3.2-6.2-5.5-9.7-5.5-9.7s-10.3-13.6-31.5-23.9
		c-13-6.6-27.3-10.3-42-10.9c-7.1-0.5-14.8-0.4-23,0.4L789,1248.3l218.9-495.4c12.1-15.3,19.5-32.7,22.3-50.5l0.1-0.1
		c0-0.2,0-0.4,0.1-0.6c4.5-29.3-3.1-59.4-21.2-82c-7.1-9.4-13.2-14-13.2-14s-1.2-0.8-3.3-2c-20.6-15.7-46.8-22.3-72.8-19.5
		c-19.7,0.9-40.6,7.6-59.7,25.5l-0.2,0.8L0,1716c341.1-261.4,517.4-522.9,798.1-784.4l-64.3,333.5l-201.5,61.4l193.7-20.7
		l-29.1,150.9l68.5-155.1l377.4-40.3L187.1,1981c413.8-306.6,938.8-446.5,1348-760.1c3.9-4.5,7.3-9.3,10.3-14.2
		C1555.7,1191.4,1560,1175.3,1560.8,1160.1z"/>
	<path class="st0" d="M187.1,1981c-8.5,6.3-16.9,12.6-25.2,19L187.1,1981z"/>
</g>
<path class="st1" d="M1758,428.2c148.2-199.1,224.2-376.1,173.3-418.8c-50.7-42.6-211.6,62.7-381.7,242.9
	c-198.4-147.4-374.6-222.8-417.2-172.2c-42.6,50.8,62.7,211.5,242.8,381.6c-141.8,193.8-213.6,364.2-163.9,405.9
	c49.8,41.7,205.4-58.8,371.8-232.5c194.5,142.7,365.7,215,407.5,165.1C2032.4,750.4,1931.8,594.7,1758,428.2z"/>
</svg>
